<?xml version="1.0" encoding="UTF-8" standalone="no"?><svg xmlns="http://www.w3.org/2000/svg" xmlns:xlink="http://www.w3.org/1999/xlink" contentScriptType="application/ecmascript" contentStyleType="text/css" height="443px" preserveAspectRatio="none" style="width:1312px;height:443px;" version="1.1" viewBox="0 0 1312 443" width="1312px" zoomAndPan="magnify"><defs><filter height="300%" id="f12xqzasab0uzh" width="300%" x="-1" y="-1"><feGaussianBlur result="blurOut" stdDeviation="2.0"/><feColorMatrix in="blurOut" result="blurOut2" type="matrix" values="0 0 0 0 0 0 0 0 0 0 0 0 0 0 0 0 0 0 .4 0"/><feOffset dx="4.0" dy="4.0" in="blurOut2" result="blurOut3"/><feBlend in="SourceGraphic" in2="blurOut3" mode="normal"/></filter></defs><g><text fill="#000000" font-family="sans-serif" font-size="18" lengthAdjust="spacingAndGlyphs" textLength="215" x="552" y="16.708">Abstract Factory Pattern</text><!--class Client--><rect fill="#FEFECE" filter="url(#f12xqzasab0uzh)" height="48" id="Client" style="stroke: #A80036; stroke-width: 1.5;" width="67" x="432" y="102.9531"/><ellipse cx="447" cy="118.9531" fill="#ADD1B2" rx="11" ry="11" style="stroke: #A80036; stroke-width: 1.0;"/><path d="M449.9688,124.5938 Q449.3906,124.8906 448.75,125.0313 Q448.1094,125.1875 447.4063,125.1875 Q444.9063,125.1875 443.5781,123.5469 Q442.2656,121.8906 442.2656,118.7656 Q442.2656,115.6406 443.5781,113.9844 Q444.9063,112.3281 447.4063,112.3281 Q448.1094,112.3281 448.75,112.4844 Q449.4063,112.6406 449.9688,112.9375 L449.9688,115.6563 Q449.3438,115.0781 448.75,114.8125 Q448.1563,114.5313 447.5313,114.5313 Q446.1875,114.5313 445.5,115.6094 Q444.8125,116.6719 444.8125,118.7656 Q444.8125,120.8594 445.5,121.9375 Q446.1875,123 447.5313,123 Q448.1563,123 448.75,122.7344 Q449.3438,122.4531 449.9688,121.875 L449.9688,124.5938 Z "/><text fill="#000000" font-family="sans-serif" font-size="12" lengthAdjust="spacingAndGlyphs" textLength="35" x="461" y="123.1074">Client</text><line style="stroke: #A80036; stroke-width: 1.5;" x1="433" x2="498" y1="134.9531" y2="134.9531"/><line style="stroke: #A80036; stroke-width: 1.5;" x1="433" x2="498" y1="142.9531" y2="142.9531"/><!--class AbstractFactory--><rect fill="#FEFECE" filter="url(#f12xqzasab0uzh)" height="53.9375" id="AbstractFactory" style="stroke: #A80036; stroke-width: 1.5;" width="131" x="266" y="99.9531"/><ellipse cx="281" cy="118.9219" fill="#ADD1B2" rx="11" ry="11" style="stroke: #A80036; stroke-width: 1.0;"/><path d="M283.9688,124.5625 Q283.3906,124.8594 282.75,125 Q282.1094,125.1563 281.4063,125.1563 Q278.9063,125.1563 277.5781,123.5156 Q276.2656,121.8594 276.2656,118.7344 Q276.2656,115.6094 277.5781,113.9531 Q278.9063,112.2969 281.4063,112.2969 Q282.1094,112.2969 282.75,112.4531 Q283.4063,112.6094 283.9688,112.9063 L283.9688,115.625 Q283.3438,115.0469 282.75,114.7813 Q282.1563,114.5 281.5313,114.5 Q280.1875,114.5 279.5,115.5781 Q278.8125,116.6406 278.8125,118.7344 Q278.8125,120.8281 279.5,121.9063 Q280.1875,122.9688 281.5313,122.9688 Q282.1563,122.9688 282.75,122.7031 Q283.3438,122.4219 283.9688,121.8438 L283.9688,124.5625 Z "/><text fill="#000000" font-family="sans-serif" font-size="12" font-style="italic" lengthAdjust="spacingAndGlyphs" textLength="70" x="309.5" y="116.0918">«interface»</text><text fill="#000000" font-family="sans-serif" font-size="12" lengthAdjust="spacingAndGlyphs" textLength="99" x="295" y="130.0605">AbstractFactory</text><line style="stroke: #A80036; stroke-width: 1.5;" x1="267" x2="396" y1="137.8906" y2="137.8906"/><line style="stroke: #A80036; stroke-width: 1.5;" x1="267" x2="396" y1="145.8906" y2="145.8906"/><!--class AbstractProductA--><rect fill="#FEFECE" filter="url(#f12xqzasab0uzh)" height="53.9375" id="AbstractProductA" style="stroke: #A80036; stroke-width: 1.5;" width="142" x="1038.5" y="99.9531"/><ellipse cx="1053.5" cy="118.9219" fill="#ADD1B2" rx="11" ry="11" style="stroke: #A80036; stroke-width: 1.0;"/><path d="M1056.4688,124.5625 Q1055.8906,124.8594 1055.25,125 Q1054.6094,125.1563 1053.9063,125.1563 Q1051.4063,125.1563 1050.0781,123.5156 Q1048.7656,121.8594 1048.7656,118.7344 Q1048.7656,115.6094 1050.0781,113.9531 Q1051.4063,112.2969 1053.9063,112.2969 Q1054.6094,112.2969 1055.25,112.4531 Q1055.9063,112.6094 1056.4688,112.9063 L1056.4688,115.625 Q1055.8438,115.0469 1055.25,114.7813 Q1054.6563,114.5 1054.0313,114.5 Q1052.6875,114.5 1052,115.5781 Q1051.3125,116.6406 1051.3125,118.7344 Q1051.3125,120.8281 1052,121.9063 Q1052.6875,122.9688 1054.0313,122.9688 Q1054.6563,122.9688 1055.25,122.7031 Q1055.8438,122.4219 1056.4688,121.8438 L1056.4688,124.5625 Z "/><text fill="#000000" font-family="sans-serif" font-size="12" font-style="italic" lengthAdjust="spacingAndGlyphs" textLength="70" x="1087.5" y="116.0918">«interface»</text><text fill="#000000" font-family="sans-serif" font-size="12" lengthAdjust="spacingAndGlyphs" textLength="110" x="1067.5" y="130.0605">AbstractProductA</text><line style="stroke: #A80036; stroke-width: 1.5;" x1="1039.5" x2="1179.5" y1="137.8906" y2="137.8906"/><line style="stroke: #A80036; stroke-width: 1.5;" x1="1039.5" x2="1179.5" y1="145.8906" y2="145.8906"/><!--class ProductA2--><rect fill="#FEFECE" filter="url(#f12xqzasab0uzh)" height="48" id="ProductA2" style="stroke: #A80036; stroke-width: 1.5;" width="97" x="1072" y="241.4531"/><ellipse cx="1087" cy="257.4531" fill="#ADD1B2" rx="11" ry="11" style="stroke: #A80036; stroke-width: 1.0;"/><path d="M1089.9688,263.0938 Q1089.3906,263.3906 1088.75,263.5313 Q1088.1094,263.6875 1087.4063,263.6875 Q1084.9063,263.6875 1083.5781,262.0469 Q1082.2656,260.3906 1082.2656,257.2656 Q1082.2656,254.1406 1083.5781,252.4844 Q1084.9063,250.8281 1087.4063,250.8281 Q1088.1094,250.8281 1088.75,250.9844 Q1089.4063,251.1406 1089.9688,251.4375 L1089.9688,254.1563 Q1089.3438,253.5781 1088.75,253.3125 Q1088.1563,253.0313 1087.5313,253.0313 Q1086.1875,253.0313 1085.5,254.1094 Q1084.8125,255.1719 1084.8125,257.2656 Q1084.8125,259.3594 1085.5,260.4375 Q1086.1875,261.5 1087.5313,261.5 Q1088.1563,261.5 1088.75,261.2344 Q1089.3438,260.9531 1089.9688,260.375 L1089.9688,263.0938 Z "/><text fill="#000000" font-family="sans-serif" font-size="12" lengthAdjust="spacingAndGlyphs" textLength="65" x="1101" y="261.6074">ProductA2</text><line style="stroke: #A80036; stroke-width: 1.5;" x1="1073" x2="1168" y1="273.4531" y2="273.4531"/><line style="stroke: #A80036; stroke-width: 1.5;" x1="1073" x2="1168" y1="281.4531" y2="281.4531"/><!--class ProductA1--><rect fill="#FEFECE" filter="url(#f12xqzasab0uzh)" height="48" id="ProductA1" style="stroke: #A80036; stroke-width: 1.5;" width="97" x="1204" y="241.4531"/><ellipse cx="1219" cy="257.4531" fill="#ADD1B2" rx="11" ry="11" style="stroke: #A80036; stroke-width: 1.0;"/><path d="M1221.9688,263.0938 Q1221.3906,263.3906 1220.75,263.5313 Q1220.1094,263.6875 1219.4063,263.6875 Q1216.9063,263.6875 1215.5781,262.0469 Q1214.2656,260.3906 1214.2656,257.2656 Q1214.2656,254.1406 1215.5781,252.4844 Q1216.9063,250.8281 1219.4063,250.8281 Q1220.1094,250.8281 1220.75,250.9844 Q1221.4063,251.1406 1221.9688,251.4375 L1221.9688,254.1563 Q1221.3438,253.5781 1220.75,253.3125 Q1220.1563,253.0313 1219.5313,253.0313 Q1218.1875,253.0313 1217.5,254.1094 Q1216.8125,255.1719 1216.8125,257.2656 Q1216.8125,259.3594 1217.5,260.4375 Q1218.1875,261.5 1219.5313,261.5 Q1220.1563,261.5 1220.75,261.2344 Q1221.3438,260.9531 1221.9688,260.375 L1221.9688,263.0938 Z "/><text fill="#000000" font-family="sans-serif" font-size="12" lengthAdjust="spacingAndGlyphs" textLength="65" x="1233" y="261.6074">ProductA1</text><line style="stroke: #A80036; stroke-width: 1.5;" x1="1205" x2="1300" y1="273.4531" y2="273.4531"/><line style="stroke: #A80036; stroke-width: 1.5;" x1="1205" x2="1300" y1="281.4531" y2="281.4531"/><!--class ConcreteFactory1--><rect fill="#FEFECE" filter="url(#f12xqzasab0uzh)" height="48" id="ConcreteFactory1" style="stroke: #A80036; stroke-width: 1.5;" width="143" x="427" y="241.4531"/><ellipse cx="442" cy="257.4531" fill="#ADD1B2" rx="11" ry="11" style="stroke: #A80036; stroke-width: 1.0;"/><path d="M444.9688,263.0938 Q444.3906,263.3906 443.75,263.5313 Q443.1094,263.6875 442.4063,263.6875 Q439.9063,263.6875 438.5781,262.0469 Q437.2656,260.3906 437.2656,257.2656 Q437.2656,254.1406 438.5781,252.4844 Q439.9063,250.8281 442.4063,250.8281 Q443.1094,250.8281 443.75,250.9844 Q444.4063,251.1406 444.9688,251.4375 L444.9688,254.1563 Q444.3438,253.5781 443.75,253.3125 Q443.1563,253.0313 442.5313,253.0313 Q441.1875,253.0313 440.5,254.1094 Q439.8125,255.1719 439.8125,257.2656 Q439.8125,259.3594 440.5,260.4375 Q441.1875,261.5 442.5313,261.5 Q443.1563,261.5 443.75,261.2344 Q444.3438,260.9531 444.9688,260.375 L444.9688,263.0938 Z "/><text fill="#000000" font-family="sans-serif" font-size="12" lengthAdjust="spacingAndGlyphs" textLength="111" x="456" y="261.6074">ConcreteFactory1</text><line style="stroke: #A80036; stroke-width: 1.5;" x1="428" x2="569" y1="273.4531" y2="273.4531"/><line style="stroke: #A80036; stroke-width: 1.5;" x1="428" x2="569" y1="281.4531" y2="281.4531"/><!--class ConcreteFactory2--><rect fill="#FEFECE" filter="url(#f12xqzasab0uzh)" height="48" id="ConcreteFactory2" style="stroke: #A80036; stroke-width: 1.5;" width="143" x="249" y="241.4531"/><ellipse cx="264" cy="257.4531" fill="#ADD1B2" rx="11" ry="11" style="stroke: #A80036; stroke-width: 1.0;"/><path d="M266.9688,263.0938 Q266.3906,263.3906 265.75,263.5313 Q265.1094,263.6875 264.4063,263.6875 Q261.9063,263.6875 260.5781,262.0469 Q259.2656,260.3906 259.2656,257.2656 Q259.2656,254.1406 260.5781,252.4844 Q261.9063,250.8281 264.4063,250.8281 Q265.1094,250.8281 265.75,250.9844 Q266.4063,251.1406 266.9688,251.4375 L266.9688,254.1563 Q266.3438,253.5781 265.75,253.3125 Q265.1563,253.0313 264.5313,253.0313 Q263.1875,253.0313 262.5,254.1094 Q261.8125,255.1719 261.8125,257.2656 Q261.8125,259.3594 262.5,260.4375 Q263.1875,261.5 264.5313,261.5 Q265.1563,261.5 265.75,261.2344 Q266.3438,260.9531 266.9688,260.375 L266.9688,263.0938 Z "/><text fill="#000000" font-family="sans-serif" font-size="12" lengthAdjust="spacingAndGlyphs" textLength="111" x="278" y="261.6074">ConcreteFactory2</text><line style="stroke: #A80036; stroke-width: 1.5;" x1="250" x2="391" y1="273.4531" y2="273.4531"/><line style="stroke: #A80036; stroke-width: 1.5;" x1="250" x2="391" y1="281.4531" y2="281.4531"/><!--class AbstractProductB--><rect fill="#FEFECE" filter="url(#f12xqzasab0uzh)" height="53.9375" id="AbstractProductB" style="stroke: #A80036; stroke-width: 1.5;" width="142" x="840.5" y="99.9531"/><ellipse cx="855.5" cy="118.9219" fill="#ADD1B2" rx="11" ry="11" style="stroke: #A80036; stroke-width: 1.0;"/><path d="M858.4688,124.5625 Q857.8906,124.8594 857.25,125 Q856.6094,125.1563 855.9063,125.1563 Q853.4063,125.1563 852.0781,123.5156 Q850.7656,121.8594 850.7656,118.7344 Q850.7656,115.6094 852.0781,113.9531 Q853.4063,112.2969 855.9063,112.2969 Q856.6094,112.2969 857.25,112.4531 Q857.9063,112.6094 858.4688,112.9063 L858.4688,115.625 Q857.8438,115.0469 857.25,114.7813 Q856.6563,114.5 856.0313,114.5 Q854.6875,114.5 854,115.5781 Q853.3125,116.6406 853.3125,118.7344 Q853.3125,120.8281 854,121.9063 Q854.6875,122.9688 856.0313,122.9688 Q856.6563,122.9688 857.25,122.7031 Q857.8438,122.4219 858.4688,121.8438 L858.4688,124.5625 Z "/><text fill="#000000" font-family="sans-serif" font-size="12" font-style="italic" lengthAdjust="spacingAndGlyphs" textLength="70" x="889.5" y="116.0918">«interface»</text><text fill="#000000" font-family="sans-serif" font-size="12" lengthAdjust="spacingAndGlyphs" textLength="110" x="869.5" y="130.0605">AbstractProductB</text><line style="stroke: #A80036; stroke-width: 1.5;" x1="841.5" x2="981.5" y1="137.8906" y2="137.8906"/><line style="stroke: #A80036; stroke-width: 1.5;" x1="841.5" x2="981.5" y1="145.8906" y2="145.8906"/><!--class ProductB1--><rect fill="#FEFECE" filter="url(#f12xqzasab0uzh)" height="48" id="ProductB1" style="stroke: #A80036; stroke-width: 1.5;" width="97" x="737" y="241.4531"/><ellipse cx="752" cy="257.4531" fill="#ADD1B2" rx="11" ry="11" style="stroke: #A80036; stroke-width: 1.0;"/><path d="M754.9688,263.0938 Q754.3906,263.3906 753.75,263.5313 Q753.1094,263.6875 752.4063,263.6875 Q749.9063,263.6875 748.5781,262.0469 Q747.2656,260.3906 747.2656,257.2656 Q747.2656,254.1406 748.5781,252.4844 Q749.9063,250.8281 752.4063,250.8281 Q753.1094,250.8281 753.75,250.9844 Q754.4063,251.1406 754.9688,251.4375 L754.9688,254.1563 Q754.3438,253.5781 753.75,253.3125 Q753.1563,253.0313 752.5313,253.0313 Q751.1875,253.0313 750.5,254.1094 Q749.8125,255.1719 749.8125,257.2656 Q749.8125,259.3594 750.5,260.4375 Q751.1875,261.5 752.5313,261.5 Q753.1563,261.5 753.75,261.2344 Q754.3438,260.9531 754.9688,260.375 L754.9688,263.0938 Z "/><text fill="#000000" font-family="sans-serif" font-size="12" lengthAdjust="spacingAndGlyphs" textLength="65" x="766" y="261.6074">ProductB1</text><line style="stroke: #A80036; stroke-width: 1.5;" x1="738" x2="833" y1="273.4531" y2="273.4531"/><line style="stroke: #A80036; stroke-width: 1.5;" x1="738" x2="833" y1="281.4531" y2="281.4531"/><!--class ProductB2--><rect fill="#FEFECE" filter="url(#f12xqzasab0uzh)" height="48" id="ProductB2" style="stroke: #A80036; stroke-width: 1.5;" width="97" x="605" y="241.4531"/><ellipse cx="620" cy="257.4531" fill="#ADD1B2" rx="11" ry="11" style="stroke: #A80036; stroke-width: 1.0;"/><path d="M622.9688,263.0938 Q622.3906,263.3906 621.75,263.5313 Q621.1094,263.6875 620.4063,263.6875 Q617.9063,263.6875 616.5781,262.0469 Q615.2656,260.3906 615.2656,257.2656 Q615.2656,254.1406 616.5781,252.4844 Q617.9063,250.8281 620.4063,250.8281 Q621.1094,250.8281 621.75,250.9844 Q622.4063,251.1406 622.9688,251.4375 L622.9688,254.1563 Q622.3438,253.5781 621.75,253.3125 Q621.1563,253.0313 620.5313,253.0313 Q619.1875,253.0313 618.5,254.1094 Q617.8125,255.1719 617.8125,257.2656 Q617.8125,259.3594 618.5,260.4375 Q619.1875,261.5 620.5313,261.5 Q621.1563,261.5 621.75,261.2344 Q622.3438,260.9531 622.9688,260.375 L622.9688,263.0938 Z "/><text fill="#000000" font-family="sans-serif" font-size="12" lengthAdjust="spacingAndGlyphs" textLength="65" x="634" y="261.6074">ProductB2</text><line style="stroke: #A80036; stroke-width: 1.5;" x1="606" x2="701" y1="273.4531" y2="273.4531"/><line style="stroke: #A80036; stroke-width: 1.5;" x1="606" x2="701" y1="281.4531" y2="281.4531"/><polygon fill="#FBFB77" filter="url(#f12xqzasab0uzh)" points="534,99.4531,534,154.8516,805,154.8516,805,109.4531,795,99.4531,534,99.4531" style="stroke: #A80036; stroke-width: 1.0;"/><polygon fill="#FBFB77" points="534,99.4531,534,122.9531,499.3672,126.9531,534,130.9531,534,154.8516,805,154.8516,805,109.4531,795,99.4531,534,99.4531" style="stroke: #A80036; stroke-width: 1.0;"/><line style="stroke: #A80036; stroke-width: 1.0;" x1="795" x2="795" y1="99.4531" y2="109.4531"/><line style="stroke: #A80036; stroke-width: 1.0;" x1="805" x2="795" y1="109.4531" y2="109.4531"/><text fill="#000000" font-family="sans-serif" font-size="13" lengthAdjust="spacingAndGlyphs" textLength="200" x="540" y="116.52">The Client is written against the</text><text fill="#000000" font-family="sans-serif" font-size="13" lengthAdjust="spacingAndGlyphs" textLength="250" x="540" y="131.6528">abstract factory and then composed at</text><text fill="#000000" font-family="sans-serif" font-size="13" lengthAdjust="spacingAndGlyphs" textLength="194" x="540" y="146.7856">runtime with an actual factory.</text><polygon fill="#FBFB77" filter="url(#f12xqzasab0uzh)" points="6,83.9531,6,169.6172,231,169.6172,231,93.9531,221,83.9531,6,83.9531" style="stroke: #A80036; stroke-width: 1.0;"/><polygon fill="#FBFB77" points="6,83.9531,6,169.6172,231,169.6172,231,130.9531,265.7045,126.9531,231,122.9531,231,93.9531,221,83.9531,6,83.9531" style="stroke: #A80036; stroke-width: 1.0;"/><line style="stroke: #A80036; stroke-width: 1.0;" x1="221" x2="221" y1="83.9531" y2="93.9531"/><line style="stroke: #A80036; stroke-width: 1.0;" x1="231" x2="221" y1="93.9531" y2="93.9531"/><text fill="#000000" font-family="sans-serif" font-size="13" lengthAdjust="spacingAndGlyphs" textLength="178" x="12" y="101.02">The AbstractFactory defines</text><text fill="#000000" font-family="sans-serif" font-size="13" lengthAdjust="spacingAndGlyphs" textLength="191" x="12" y="116.1528">the interface that all Concrete</text><text fill="#000000" font-family="sans-serif" font-size="13" lengthAdjust="spacingAndGlyphs" textLength="204" x="12" y="131.2856">factories must implement which</text><text fill="#000000" font-family="sans-serif" font-size="13" lengthAdjust="spacingAndGlyphs" textLength="181" x="12" y="146.4185">consists of a set of methods</text><text fill="#000000" font-family="sans-serif" font-size="13" lengthAdjust="spacingAndGlyphs" textLength="148" x="12" y="161.5513">for producing products.</text><polygon fill="#FBFB77" filter="url(#f12xqzasab0uzh)" points="251.5,360.9531,251.5,431.4844,567.5,431.4844,567.5,370.9531,557.5,360.9531,251.5,360.9531" style="stroke: #A80036; stroke-width: 1.0;"/><line style="stroke: #A80036; stroke-width: 1.0;" x1="557.5" x2="557.5" y1="360.9531" y2="370.9531"/><line style="stroke: #A80036; stroke-width: 1.0;" x1="567.5" x2="557.5" y1="370.9531" y2="370.9531"/><text fill="#000000" font-family="sans-serif" font-size="13" lengthAdjust="spacingAndGlyphs" textLength="240" x="257.5" y="378.02">The concrete factories implement the</text><text fill="#000000" font-family="sans-serif" font-size="13" lengthAdjust="spacingAndGlyphs" textLength="239" x="257.5" y="393.1528">different product families. To create a</text><text fill="#000000" font-family="sans-serif" font-size="13" lengthAdjust="spacingAndGlyphs" textLength="293" x="257.5" y="408.2856">product the client uses one of these factories,</text><text fill="#000000" font-family="sans-serif" font-size="13" lengthAdjust="spacingAndGlyphs" textLength="295" x="257.5" y="423.4185">so it never has to instantiate a product object.</text><polygon fill="#FBFB77" filter="url(#f12xqzasab0uzh)" points="869.5,229.9531,869.5,300.4844,1037.5,300.4844,1037.5,239.9531,1027.5,229.9531,869.5,229.9531" style="stroke: #A80036; stroke-width: 1.0;"/><line style="stroke: #A80036; stroke-width: 1.0;" x1="1027.5" x2="1027.5" y1="229.9531" y2="239.9531"/><line style="stroke: #A80036; stroke-width: 1.0;" x1="1037.5" x2="1027.5" y1="239.9531" y2="239.9531"/><text fill="#000000" font-family="sans-serif" font-size="13" lengthAdjust="spacingAndGlyphs" textLength="117" x="875.5" y="247.02">This is the product</text><text fill="#000000" font-family="sans-serif" font-size="13" lengthAdjust="spacingAndGlyphs" textLength="137" x="875.5" y="262.1528">family. Each concrete</text><text fill="#000000" font-family="sans-serif" font-size="13" lengthAdjust="spacingAndGlyphs" textLength="147" x="875.5" y="277.2856">factory can produce an</text><text fill="#000000" font-family="sans-serif" font-size="13" lengthAdjust="spacingAndGlyphs" textLength="141" x="875.5" y="292.4185">entire set of products.</text><!--link AbstractFactory to Client--><path d="M402.3404,126.9531 C412.1867,126.9531 422.033,126.9531 431.8794,126.9531 " fill="none" id="AbstractFactory-Client" style="stroke: #A80036; stroke-width: 1.0;"/><polygon fill="#A80036" points="397.1914,126.9531,406.1914,130.9531,402.1914,126.9531,406.1914,122.9531,397.1914,126.9531" style="stroke: #A80036; stroke-width: 1.0;"/><!--link Client to AbstractProductA--><path d="M480.426,102.6116 C492.492,85.4484 511.1931,63.8276 534,53.9531 C625.5641,14.3094 886.6194,28.1387 983,53.9531 C1014.4739,62.383 1046.224,80.7434 1070.0427,96.9408 " fill="none" id="Client-AbstractProductA" style="stroke: #A80036; stroke-width: 1.0;"/><polygon fill="#A80036" points="1074.3961,99.9371,1069.2505,91.5393,1070.2775,97.1022,1064.7146,98.1291,1074.3961,99.9371" style="stroke: #A80036; stroke-width: 1.0;"/><!--link Client to AbstractProductB--><path d="M480.426,102.6116 C492.492,85.4484 511.1931,63.8276 534,53.9531 C589.2647,30.0256 747.4755,36.1306 805,53.9531 C832.3004,62.4114 858.8244,80.5522 878.5735,96.6326 " fill="none" id="Client-AbstractProductB" style="stroke: #A80036; stroke-width: 1.0;"/><polygon fill="#A80036" points="882.4312,99.8178,878.0377,91.0032,878.5755,96.6344,872.9443,97.1723,882.4312,99.8178" style="stroke: #A80036; stroke-width: 1.0;"/><!--link AbstractFactory to ConcreteFactory1--><path d="M379.7878,167.0002 C408.7569,191.0255 444.6487,220.792 469.3377,241.2676 " fill="none" id="AbstractFactory-ConcreteFactory1" style="stroke: #A80036; stroke-width: 1.0; stroke-dasharray: 7.0,7.0;"/><polygon fill="none" points="375.0218,172.1416,364.0957,153.9861,383.959,161.3654,375.0218,172.1416" style="stroke: #A80036; stroke-width: 1.0;"/><!--link AbstractFactory to ConcreteFactory2--><path d="M327.7483,174.1905 C325.9564,196.7517 323.8883,222.792 322.4209,241.2676 " fill="none" id="AbstractFactory-ConcreteFactory2" style="stroke: #A80036; stroke-width: 1.0; stroke-dasharray: 7.0,7.0;"/><polygon fill="none" points="320.7914,173.3691,329.353,153.9861,334.7475,174.4775,320.7914,173.3691" style="stroke: #A80036; stroke-width: 1.0;"/><!--link AbstractProductA to ProductA1--><path d="M1151.8901,168.0092 C1176.51,191.8544 1206.6828,221.0777 1227.5287,241.2676 " fill="none" id="AbstractProductA-ProductA1" style="stroke: #A80036; stroke-width: 1.0; stroke-dasharray: 7.0,7.0;"/><polygon fill="none" points="1146.9077,172.9286,1137.4113,153.9861,1156.6477,162.8722,1146.9077,172.9286" style="stroke: #A80036; stroke-width: 1.0;"/><!--link AbstractProductA to ProductA2--><path d="M1113.2517,174.1905 C1115.0436,196.7517 1117.1117,222.792 1118.5791,241.2676 " fill="none" id="AbstractProductA-ProductA2" style="stroke: #A80036; stroke-width: 1.0; stroke-dasharray: 7.0,7.0;"/><polygon fill="none" points="1106.2525,174.4775,1111.647,153.9861,1120.2086,173.3691,1106.2525,174.4775" style="stroke: #A80036; stroke-width: 1.0;"/><!--link AbstractProductB to ProductB1--><path d="M873.2255,169.0247 C851.7055,192.6796 825.6105,221.3634 807.5027,241.2676 " fill="none" id="AbstractProductB-ProductB1" style="stroke: #A80036; stroke-width: 1.0; stroke-dasharray: 7.0,7.0;"/><polygon fill="none" points="868.2701,164.0695,886.9068,153.9861,878.6259,173.4907,868.2701,164.0695" style="stroke: #A80036; stroke-width: 1.0;"/><!--link AbstractProductB to ProductB2--><path d="M843.2349,163.551 C806.5522,183.223 760.5504,207.9022 719.5,229.9531 C712.623,233.6472 705.344,237.5598 698.2294,241.3855 " fill="none" id="AbstractProductB-ProductB2" style="stroke: #A80036; stroke-width: 1.0; stroke-dasharray: 7.0,7.0;"/><polygon fill="none" points="840.0267,157.3284,860.9606,154.0458,846.6429,169.6665,840.0267,157.3284" style="stroke: #A80036; stroke-width: 1.0;"/><!--link ProductA1 to ConcreteFactory1--><path d="M1226.5198,237.5865 C1211.3092,223.3598 1190.8338,207.4949 1169,199.9531 C1050.5349,159.033 725.6002,165.8352 605,199.9531 C576.385,208.0483 547.8962,226.2378 527.5937,241.3991 " fill="none" id="ProductA1-ConcreteFactory1" style="stroke: #A80036; stroke-width: 1.0;"/><polygon fill="#A80036" points="1230.2711,241.1621,1226.5163,232.0571,1226.6519,237.7123,1220.9966,237.8479,1230.2711,241.1621" style="stroke: #A80036; stroke-width: 1.0;"/><!--link ProductB1 to ConcreteFactory1--><path d="M759.5198,237.5865 C744.3092,223.3598 723.8338,207.4949 702,199.9531 C661.2513,185.8778 646.4831,188.2175 605,199.9531 C576.385,208.0483 547.8962,226.2378 527.5937,241.3991 " fill="none" id="ProductB1-ConcreteFactory1" style="stroke: #A80036; stroke-width: 1.0;"/><polygon fill="#A80036" points="763.2711,241.1621,759.5163,232.0571,759.6519,237.7123,753.9966,237.8479,763.2711,241.1621" style="stroke: #A80036; stroke-width: 1.0;"/><!--link ProductA2 to ConcreteFactory2--><path d="M1094.8918,237.5925 C1079.882,223.3677 1059.6503,207.5026 1038,199.9531 C973.8966,177.6002 492.3251,181.4726 427,199.9531 C398.385,208.0483 369.8962,226.2378 349.5937,241.3991 " fill="none" id="ProductA2-ConcreteFactory2" style="stroke: #A80036; stroke-width: 1.0;"/><polygon fill="#A80036" points="1098.593,241.1676,1094.8987,232.0379,1094.9967,237.6939,1089.3407,237.792,1098.593,241.1676" style="stroke: #A80036; stroke-width: 1.0;"/><!--link ProductB2 to ConcreteFactory2--><path d="M627.5198,237.5865 C612.3092,223.3598 591.8338,207.4949 570,199.9531 C509.9272,179.2028 488.1554,182.6522 427,199.9531 C398.385,208.0483 369.8962,226.2378 349.5937,241.3991 " fill="none" id="ProductB2-ConcreteFactory2" style="stroke: #A80036; stroke-width: 1.0;"/><polygon fill="#A80036" points="631.2711,241.1621,627.5163,232.0571,627.6519,237.7123,621.9966,237.8479,631.2711,241.1621" style="stroke: #A80036; stroke-width: 1.0;"/><!--link ConcreteFactory1 to n1--><path d="M482.176,289.4805 C468.6267,309.4239 449.1571,338.0814 433.7792,360.7163 " fill="none" id="ConcreteFactory1-n1" style="stroke: #A80036; stroke-width: 1.0; stroke-dasharray: 7.0,7.0;"/><!--link ConcreteFactory2 to n1--><path d="M336.824,289.4805 C350.3733,309.4239 369.8429,338.0814 385.2208,360.7163 " fill="none" id="ConcreteFactory2-n1" style="stroke: #A80036; stroke-width: 1.0; stroke-dasharray: 7.0,7.0;"/><!--link AbstractProductA to n2--><path d="M1079.0513,153.9861 C1054.6672,175.6348 1020.2571,206.1848 993.6256,229.8288 " fill="none" id="AbstractProductA-n2" style="stroke: #A80036; stroke-width: 1.0; stroke-dasharray: 7.0,7.0;"/><!--link AbstractProductB to n2--><path d="M919.6977,153.9861 C926.2627,175.6348 935.5269,206.1848 942.697,229.8288 " fill="none" id="AbstractProductB-n2" style="stroke: #A80036; stroke-width: 1.0; stroke-dasharray: 7.0,7.0;"/><!--
@startuml

skinparam componentStyle uml2

title Abstract Factory Pattern

class Client
class AbstractFactory <<interface>>
class AbstractProductA <<interface>>
class ProductA2
class ProductA1
class ConcreteFactory1
class ConcreteFactory2
class AbstractProductB <<interface>>
class ProductB1
class ProductB2

AbstractFactory <- Client
Client -> AbstractProductA
Client -> AbstractProductB
AbstractFactory <|.. ConcreteFactory1
AbstractFactory <|.. ConcreteFactory2
AbstractProductA <|.. ProductA1
AbstractProductA <|.. ProductA2
AbstractProductB <|.. ProductB1
AbstractProductB <|.. ProductB2
ProductA1 <- ConcreteFactory1
ProductB1 <- ConcreteFactory1
ProductA2 <- ConcreteFactory2
ProductB2 <- ConcreteFactory2

note right of Client
The Client is written against the
abstract factory and then composed at
runtime with an actual factory.
end note

note left of AbstractFactory
The AbstractFactory defines
the interface that all Concrete
factories must implement which
consists of a set of methods
for producing products.
end note

note “The concrete factories implement the\ndifferent product families. To create a\nproduct the client uses one of these factories,\nso it never has to instantiate a product object.” as n1
ConcreteFactory1 .. n1
ConcreteFactory2 .. n1

note “This is the product\nfamily. Each concrete\nfactory can produce an\nentire set of products.” as n2
AbstractProductA .. n2
AbstractProductB .. n2

@enduml

PlantUML version 1.2017.15(Tue Jul 04 01:45:34 KST 2017)
(GPL source distribution)
Java Runtime: OpenJDK Runtime Environment
JVM: OpenJDK 64-Bit Server VM
Java Version: 11.0.9.1+1-Ubuntu-0ubuntu1.18.04
Operating System: Linux
OS Version: 4.4.0-19041-Microsoft
Default Encoding: UTF-8
Language: en
Country: null
--></g></svg>